# xmcd CD database file
#
# Track frame offsets:
#	150
#	17513
#	38611
#	57654
#	75002
#	94003
#	109781
#	126194
#	140871
#	162177
#	177751
#	194989
#	211557
#	228625
#	244628
#	260545
#	283121
#	302467
#
# Disc length: 4279 seconds
#
# Revision: 0
# Processed by: cddbd v1.5.2PL0 Copyright (c) Steve Scherf et al.
# Submitted via: CDex 1.70beta2
#
DISCID=f210b512
DTITLE=Various Artist - Caffeine more FLAVOR BOSSA CASE
DYEAR=2007
DGENRE=Jazz
TTITLE0=Every Breath You Take (The Police) - miu-clips
TTITLE1=Can't Take My Eyes Off Of You (Frankie Vale) - autumn leave's
TTITLE2=Sunday Morning (Maroon5) - Tangerine.
TTITLE3=Free Your Soul (autumn leave's) - autumn leave's
TTITLE4=My Ever Changing Moods (The Style Council) - Avocado Blue
TTITLE5=Say A Little Prayer (Aretha Franklin ) - miu-clips
TTITLE6=Chocolate Sky (Osuro) - Osuro
TTITLE7=Lovefool (The Cardigans) - miu-clips
TTITLE8=C'Est La Vie (Tangerine.) - Tangerine.
TTITLE9=Ribbon In The Sky (Stevie Wonder) - miu-clips
TTITLE10=The One (Backstreet Boys) - Osuro
TTITLE11=The Reason (Hoobastank ) - autumn leave's
TTITLE12=The One That You Love (Air Supply) - Beltempo
TTITLE13=Club AL (autumn leave's) - autumn leave's
TTITLE14=Up! (Shania Twain) - Cranberry Island
TTITLE15=Clocks (Coldplay) - Avocado Blue
TTITLE16=She Will Be Loved (Maroon5) - Beltempo
TTITLE17=So Far Away (Carole King) - miu-clips
EXTD=YEAR: 2007
EXTT0=
EXTT1=
EXTT2=
EXTT3=
EXTT4=
EXTT5=
EXTT6=
EXTT7=
EXTT8=
EXTT9=
EXTT10=
EXTT11=
EXTT12=
EXTT13=
EXTT14=
EXTT15=
EXTT16=
EXTT17=
PLAYORDER=
